<svg width="18" height="18" viewBox="0 0 18 18" fill="none" xmlns="http://www.w3.org/2000/svg">
<path d="M6.75 1.5H11.25C15 1.5 16.5 3 16.5 6.75V11.25C16.5 15 15 16.5 11.25 16.5H6.75C3 16.5 1.5 15 1.5 11.25V6.75C1.5 3 3 1.5 6.75 1.5Z" stroke="#292D32" stroke-width="1.5" stroke-linecap="round" stroke-linejoin="round"/>
<path d="M6.42749 11.4525L11.3325 6.54749" stroke="#292D32" stroke-width="1.5" stroke-linecap="round" stroke-linejoin="round"/>
<path d="M6.73501 7.77749C7.24449 7.77749 7.65749 7.36449 7.65749 6.855C7.65749 6.34552 7.24449 5.9325 6.73501 5.9325C6.22553 5.9325 5.8125 6.34552 5.8125 6.855C5.8125 7.36449 6.22553 7.77749 6.73501 7.77749Z" stroke="#292D32" stroke-width="1.5" stroke-linecap="round" stroke-linejoin="round"/>
<path d="M11.64 12.0675C12.1495 12.0675 12.5625 11.6545 12.5625 11.145C12.5625 10.6355 12.1495 10.2225 11.64 10.2225C11.1305 10.2225 10.7175 10.6355 10.7175 11.145C10.7175 11.6545 11.1305 12.0675 11.64 12.0675Z" stroke="#292D32" stroke-width="1.5" stroke-linecap="round" stroke-linejoin="round"/>
</svg>
